<?xml version="1.0" encoding="UTF-8" standalone="no"?><!DOCTYPE svg PUBLIC "-//W3C//DTD SVG 1.1//EN" "http://www.w3.org/Graphics/SVG/1.1/DTD/svg11.dtd"><svg width="100%" height="100%" viewBox="0 0 503 207" version="1.1" xmlns="http://www.w3.org/2000/svg" xmlns:xlink="http://www.w3.org/1999/xlink" xml:space="preserve" xmlns:serif="http://www.serif.com/" style="fill-rule:evenodd;clip-rule:evenodd;stroke-linejoin:round;stroke-miterlimit:2;"><path id="path7" d="M440.792,88.382l38.037,0l0,-88.382l-41.394,0l0,12.306l-7.831,-12.306l-35.8,0l-0,15.663l-6.713,-15.663l-66.007,0c-2.237,0 -4.475,1.119 -6.712,1.119c-2.238,-0 -3.357,1.119 -5.594,2.237c-2.238,1.119 -3.356,1.119 -5.594,2.238l0,-5.594l-189.07,0l-5.594,14.544l-5.594,-14.544l-44.75,0l-0,15.663l-6.713,-15.663l-35.8,0l-15.663,38.038l0,50.344l25.731,0l4.476,-12.306l8.95,-0l4.475,12.306l196.901,0l0,-11.188l7.832,11.188l54.819,0l0,-6.712c1.119,1.118 3.356,1.118 4.475,2.237c1.119,1.119 3.356,1.119 4.475,2.238c2.238,1.118 4.475,1.118 6.713,1.118l40.275,0l4.475,-12.306l8.95,-0l4.475,12.306l54.819,0l0,-11.187l8.951,12.306Zm61.531,111.876l0,-82.788l-307.659,-0l-7.831,11.187l-7.831,-11.187l-89.501,-0l-0,88.382l89.501,-0l7.831,-11.188l7.831,11.188l55.938,-0l0,-19.019l-2.237,-0c7.831,-0 14.544,-1.119 20.137,-3.356l0,23.494l40.276,-0l-0,-11.188l7.831,11.188l166.695,-0c6.713,-2.238 13.426,-3.357 19.019,-6.713Z" style="fill:#fff;fill-rule:nonzero;"/><path id="path9" d="M483.304,179.002l-30.206,-0l-0,12.306l29.088,0c12.306,0 20.137,-7.831 20.137,-19.019c0,-11.188 -6.712,-16.781 -17.9,-16.781l-13.425,-0c-3.356,-0 -5.594,-2.238 -5.594,-5.594c0,-3.356 2.238,-5.594 5.594,-5.594l25.732,0l5.593,-12.306l-30.206,-0c-12.307,-0 -20.138,7.831 -20.138,17.9c0,11.187 6.713,16.781 17.9,16.781l13.425,0c3.357,0 5.594,2.238 5.594,5.594c1.119,4.475 -1.119,6.713 -5.594,6.713Zm-54.819,-0l-30.206,-0l-0,12.306l29.087,0c12.307,0 20.138,-7.831 20.138,-19.019c0,-11.188 -6.712,-16.781 -17.9,-16.781l-13.425,-0c-3.356,-0 -5.594,-2.238 -5.594,-5.594c0,-3.356 2.238,-5.594 5.594,-5.594l25.731,0l5.594,-12.306l-30.206,-0c-12.307,-0 -20.138,7.831 -20.138,17.9c-0,11.187 6.712,16.781 17.9,16.781l13.425,0c3.356,0 5.594,2.238 5.594,5.594c1.119,4.475 -2.238,6.713 -5.594,6.713Zm-39.156,-35.801l-0,-12.306l-46.988,-0l-0,59.294l46.988,0l-0,-12.306l-33.563,-0l-0,-12.306l32.444,-0l-0,-12.307l-32.444,0l-0,-11.187l33.563,-0l-0,1.118Zm-76.076,0c5.594,0 7.831,3.357 7.831,6.713c0,3.356 -2.237,6.712 -7.831,6.712l-16.782,0l0,-14.543l16.782,1.118Zm-16.782,25.732l6.713,-0l17.9,21.256l16.782,0l-20.138,-22.375c10.069,-2.237 15.663,-8.95 15.663,-17.9c-0,-11.188 -7.832,-19.019 -20.138,-19.019l-31.325,-0l-0,59.294l13.425,0l1.118,-21.256Zm-35.8,-17.9c0,4.475 -2.237,7.831 -7.831,7.831l-17.9,-0l-0,-15.663l16.781,0c5.594,0 8.95,3.357 8.95,7.832Zm-39.156,-20.138l-0,59.294l13.425,0l-0,-20.137l17.9,-0c12.306,-0 21.256,-7.832 21.256,-20.138c0,-11.188 -7.831,-20.138 -20.137,-20.138l-32.444,1.119Zm-20.138,59.294l16.781,0l-23.494,-30.206l23.494,-29.088l-16.781,-0l-14.544,19.019l-14.544,-19.019l-16.781,-0l23.494,29.088l-23.494,29.087l16.781,0l14.544,-19.018l14.544,20.137Zm-50.344,-46.988l-0,-12.306l-46.988,-0l-0,59.294l46.988,0l-0,-12.306l-33.563,-0l-0,-12.306l32.444,-0l-0,-12.307l-32.444,0l-0,-11.187l33.563,-0l-0,1.118Zm271.858,-105.163l23.494,35.8l16.782,0l-0,-59.294l-13.425,-0l-0,39.157l-3.357,-5.594l-21.256,-33.563l-17.9,-0l-0,59.294l13.425,0l-0,-40.275l2.237,4.475Zm-58.175,-1.119l4.475,-12.306l4.475,12.306l5.594,13.425l-20.138,0l5.594,-13.425Zm23.494,36.919l14.544,0l-25.732,-59.294l-17.9,-0l-25.731,59.294l14.543,0l5.594,-12.306l29.088,-0l5.594,12.306Zm-62.651,0l5.594,-12.306l-3.356,-0c-10.069,-0 -15.663,-6.713 -15.663,-16.782l0,-1.118c0,-10.069 5.594,-16.782 15.663,-16.782l14.544,0l-0,-12.306l-15.663,-0c-17.9,-0 -27.969,12.306 -27.969,29.088l-0,1.118c-0,17.901 10.069,29.088 26.85,29.088Zm-50.344,0l13.425,0l0,-58.175l-13.425,-0l0,58.175Zm-29.088,-46.988c5.594,0 7.832,3.357 7.832,6.713c-0,3.356 -2.238,6.712 -7.832,6.712l-16.781,0l-0,-14.544l16.781,1.119Zm-16.781,25.732l6.712,-0l17.901,21.256l16.781,0l-20.138,-22.375c10.069,-2.238 15.663,-8.95 15.663,-17.9c-0,-11.188 -7.831,-19.019 -20.138,-19.019l-31.325,-0l-0,59.294l13.425,0l1.119,-21.256Zm-24.613,-25.732l0,-12.306l-46.988,-0l0,59.294l46.988,0l0,-12.306l-33.563,-0l0,-12.307l32.444,0l0,-12.306l-32.444,0l0,-11.188l33.563,0l0,1.119Zm-101.807,46.988l12.306,0l16.782,-48.107l-0,48.107l13.425,0l-0,-59.294l-22.375,-0l-13.425,40.275l-13.426,-40.275l-22.375,-0l0,59.294l13.425,0l0,-48.107l15.663,48.107Zm-72.719,-36.919l4.475,-12.306l4.475,12.306l5.593,13.425l-20.137,0l5.594,-13.425Zm23.493,36.919l14.544,0l-25.731,-59.294l-16.782,-0l-25.731,59.294l14.544,0l5.594,-12.306l29.087,-0l4.475,12.306Z" style="fill:#006fcf;fill-rule:nonzero;"/></svg>