<?xml version="1.0" encoding="UTF-8" standalone="no"?><!DOCTYPE svg PUBLIC "-//W3C//DTD SVG 1.1//EN" "http://www.w3.org/Graphics/SVG/1.1/DTD/svg11.dtd"><svg width="100%" height="100%" viewBox="0 0 397 309" version="1.1" xmlns="http://www.w3.org/2000/svg" xmlns:xlink="http://www.w3.org/1999/xlink" xml:space="preserve" xmlns:serif="http://www.serif.com/" style="fill-rule:evenodd;clip-rule:evenodd;stroke-linecap:round;stroke-linejoin:round;stroke-miterlimit:1.5;"><path d="M172.161,77.681l0,-62.277c0,-2.704 -1.074,-5.298 -2.987,-7.211c-1.912,-1.912 -4.506,-2.987 -7.21,-2.987c-29.836,0 -116.725,0 -146.56,0c-2.704,0 -5.298,1.075 -7.211,2.987c-1.912,1.913 -2.987,4.507 -2.987,7.211c0,44.369 0,220.719 0,273.074c0,8.134 6.594,14.728 14.728,14.728c31.652,0 105.848,0 137.499,0c8.134,0 14.728,-6.594 14.728,-14.728c0,-32.454 0,-107.272 0,-107.272" style="fill:none;stroke:#fff;stroke-width:10.41px;"/><path d="M179.206,181.206c0,0 -2.295,3.826 -4.878,8.131c-4.036,6.727 -2.288,15.42 4.034,20.064c10.235,7.52 25.386,18.649 36.073,26.5c8.025,5.895 18.256,7.915 27.92,5.512c2.796,-0.695 4.851,-1.207 4.851,-1.207" style="fill:none;stroke:#fff;stroke-width:10.41px;"/><path d="M195.206,222.206c0,0 -3.969,4.651 -8.614,10.093c-3.475,4.072 -4.886,9.516 -3.825,14.763c1.061,5.248 4.475,9.716 9.26,12.118c7.521,3.776 15.95,8.008 22.945,11.52c9.663,4.851 20.717,6.174 31.252,3.738c7.165,-1.656 13.982,-3.232 13.982,-3.232" style="fill:none;stroke:#fff;stroke-width:10.41px;"/><path d="M184.206,184.206c0,0 -70.065,-13.88 -96.267,-19.072c-2.576,-0.51 -4.842,-2.026 -6.297,-4.213c-1.454,-2.187 -1.977,-4.863 -1.452,-7.436c4.085,-20.017 13.337,-65.352 16.734,-81.997c0.713,-3.491 4.085,-5.771 7.589,-5.132c20.746,3.78 87.075,15.865 113.945,20.761c2.93,0.534 5.497,2.283 7.065,4.815c1.568,2.532 1.991,5.609 1.164,8.47c-3.767,13.036 -9.481,32.804 -9.481,32.804" style="fill:none;stroke:#fff;stroke-width:10.41px;"/><path d="M279.206,175.206c0,0 -105.961,-78.904 -131,-50c-21.666,25.012 101,111 101,111c7.817,39.481 29.183,62.187 65,67" style="fill:none;stroke:#fff;stroke-width:10.41px;"/><path d="M391.206,268.206c0,0 -59.666,-125.333 -101,-148c-23.738,-13.018 -63.104,-6 -63.104,-6" style="fill:none;stroke:#fff;stroke-width:10.41px;"/></svg>