<?xml version="1.0" encoding="UTF-8" standalone="no"?><!DOCTYPE svg PUBLIC "-//W3C//DTD SVG 1.1//EN" "http://www.w3.org/Graphics/SVG/1.1/DTD/svg11.dtd"><svg width="100%" height="100%" viewBox="0 0 185 71" version="1.1" xmlns="http://www.w3.org/2000/svg" xmlns:xlink="http://www.w3.org/1999/xlink" xml:space="preserve" xmlns:serif="http://www.serif.com/" style="fill-rule:evenodd;clip-rule:evenodd;stroke-linejoin:round;stroke-miterlimit:2;"><g><g id="g56"><path id="path58" d="M28.799,15.64c2.076,-0.695 4.295,-1.068 6.607,-1.068c10.071,-0 18.479,7.155 20.407,16.668l14.278,-2.916c-3.276,-16.157 -17.56,-28.324 -34.685,-28.324c-3.929,-0 -7.7,0.639 -11.227,1.819l4.62,13.821Z" style="fill:#fbc707;fill-rule:nonzero;"/></g><g id="g60"><path id="path62" d="M11.948,61.916l9.659,-10.917c-4.312,-3.82 -7.031,-9.392 -7.031,-15.6c-0,-6.206 2.716,-11.775 7.023,-15.591l-9.659,-10.919c-7.323,6.486 -11.94,15.959 -11.94,26.51c-0,10.556 4.623,20.032 11.948,26.517" style="fill:#38a7e4;fill-rule:nonzero;"/></g><g id="g64"><path id="path66" d="M55.807,39.579c-1.932,9.502 -10.333,16.646 -20.401,16.646c-2.315,0 -4.539,-0.373 -6.612,-1.072l-4.627,13.824c3.528,1.182 7.307,1.816 11.239,1.816c17.109,0 31.391,-12.141 34.68,-28.29l-14.279,-2.924Z" style="fill:#ef3120;fill-rule:nonzero;"/></g><g id="g68"><path id="path70" d="M111.112,47.151c-0.005,0.007 -0.008,0.009 -0.011,0.016l-0.408,-0.277c-1.169,1.9 -2.99,3.436 -5.294,4.432c-4.383,1.906 -8.443,1.417 -11.358,-1.14l-0.268,0.405l-0.005,-0.007l-4.976,7.439c1.235,0.856 2.56,1.585 3.953,2.165c5.492,2.28 11.112,2.174 16.648,-0.233c4.003,-1.732 7.146,-4.38 9.295,-7.735l-7.576,-5.065Zm-15.524,-18.351c-4.621,1.988 -7.009,6.327 -6.517,11.418l19.596,-8.436c-3.367,-3.963 -7.755,-5.274 -13.079,-2.982m-13.009,22.659c-0.47,-0.757 -1.106,-1.972 -1.488,-2.863c-2.26,-5.249 -2.37,-10.681 -0.46,-15.896c2.098,-5.721 6.112,-10.098 11.29,-12.328c6.519,-2.805 13.724,-2.249 19.97,1.454c3.964,2.274 6.776,5.788 8.912,10.756c0.273,0.636 0.509,1.318 0.744,1.894l-38.968,16.983Z" style="fill:#fff;fill-rule:nonzero;"/></g><g id="g72"><path id="path74" d="M135.169,9.416l0,41.357l6.43,2.604l-3.654,8.523l-7.096,-2.949c-1.594,-0.692 -2.677,-1.748 -3.5,-2.94c-0.781,-1.215 -1.37,-2.882 -1.37,-5.124l-0,-41.471l9.19,-0Z" style="fill:#fff;fill-rule:nonzero;"/></g><g id="g76"><path id="path78" d="M151.826,40.236c0.002,-3.52 1.56,-6.679 4.018,-8.826l-6.597,-7.353c-4.473,3.956 -7.288,9.731 -7.296,16.169c-0.008,6.446 2.804,12.227 7.279,16.192l6.585,-7.364c-2.445,-2.152 -3.992,-5.305 -3.989,-8.818" style="fill:#fff;fill-rule:nonzero;"/></g><g id="g80"><path id="path82" d="M163.544,51.973c-1.3,-0.002 -2.546,-0.218 -3.716,-0.608l-3.15,9.371c2.153,0.723 4.462,1.115 6.858,1.117c10.443,0.01 19.167,-7.401 21.188,-17.253l-9.685,-1.975c-1.099,5.339 -5.831,9.354 -11.495,9.348" style="fill:#fff;fill-rule:nonzero;"/></g><g id="g84"><path id="path86" d="M163.573,18.639c-2.396,-0.002 -4.697,0.387 -6.852,1.103l3.125,9.376c1.17,-0.385 2.42,-0.601 3.719,-0.601c5.677,0.006 10.409,4.044 11.481,9.398l9.686,-1.966c-1.99,-9.864 -10.703,-17.303 -21.159,-17.31" style="fill:#fff;fill-rule:nonzero;"/></g></g></svg>