<?xml version="1.0" encoding="UTF-8" standalone="no"?><!DOCTYPE svg PUBLIC "-//W3C//DTD SVG 1.1//EN" "http://www.w3.org/Graphics/SVG/1.1/DTD/svg11.dtd"><svg width="100%" height="100%" viewBox="0 0 42 38" version="1.1" xmlns="http://www.w3.org/2000/svg" xmlns:xlink="http://www.w3.org/1999/xlink" xml:space="preserve" xmlns:serif="http://www.serif.com/" style="fill-rule:evenodd;clip-rule:evenodd;stroke-linejoin:round;stroke-miterlimit:2;"><g><path d="M20.824,28c-2.762,0 -5,2.238 -5,5c0,2.762 2.238,5 5,5c2.762,0 5,-2.238 5,-5c0,-2.762 -2.238,-5 -5,-5Zm0,8c-1.656,0 -3,-1.343 -3,-3c0,-1.657 1.344,-3 3,-3c1.656,0 3,1.343 3,3c0,1.657 -1.344,3 -3,3Z" style="fill:#fff;fill-rule:nonzero;"/></g><g><path d="M29.051,24.87c-0.51,0.651 -1.451,0.768 -2.104,0.259l0.011,-0.015c-1.694,-1.319 -3.819,-2.113 -6.134,-2.113c-2.299,0 -4.41,0.785 -6.1,2.09l-0.002,-0.003c-0.003,0.003 -0.006,0.006 -0.008,0.009c-0.008,0.006 -0.017,0.012 -0.024,0.018l0.001,0.002c-0.652,0.499 -1.585,0.384 -2.092,-0.265c-0.511,-0.652 -0.396,-1.596 0.258,-2.105c0.007,-0.006 0.016,-0.007 0.023,-0.013l-0.003,-0.005c2.198,-1.703 4.95,-2.727 7.946,-2.727c3.001,0 5.756,1.027 7.957,2.735l-0.014,0.016c0.008,0.006 0.018,0.007 0.025,0.013c0.654,0.508 0.769,1.451 0.26,2.104Zm6.156,-7.875c-0.511,0.652 -1.453,0.768 -2.106,0.258c-0.007,-0.005 -0.01,-0.012 -0.016,-0.018l0.006,-0.007c-3.39,-2.64 -7.639,-4.227 -12.268,-4.227c-4.623,0 -8.867,1.584 -12.254,4.218l-0.004,-0.006c-0.008,0.006 -0.01,0.016 -0.018,0.021c-0.652,0.51 -1.596,0.395 -2.106,-0.258c-0.511,-0.652 -0.396,-1.596 0.258,-2.105c0.007,-0.006 0.016,-0.007 0.023,-0.013l0,-0.001c3.896,-3.033 8.779,-4.856 14.1,-4.856c5.323,-0 10.21,1.825 14.107,4.861l0.021,-0.026c0.001,0.001 0.002,0.002 0.002,0.003l-0.029,0.038c0.007,0.006 0.017,0.007 0.024,0.013c0.654,0.509 0.77,1.452 0.26,2.105Zm6.125,-7.938c-0.511,0.652 -1.453,0.768 -2.106,0.258c-0.007,-0.006 -0.01,-0.015 -0.018,-0.021l-0.005,0.007c-5.078,-3.944 -11.451,-6.3 -18.379,-6.3c-6.924,0 -13.292,2.354 -18.369,6.293l-0.014,-0.019c-0.008,0.006 -0.01,0.016 -0.018,0.021c-0.652,0.51 -1.596,0.395 -2.106,-0.258c-0.506,-0.647 -0.394,-1.576 0.243,-2.09l0.007,0.009c5.593,-4.355 12.618,-6.957 20.256,-6.957c7.625,0 14.639,2.594 20.227,6.937l-0.001,0.002c0.004,0.003 0.008,0.005 0.013,0.007c0.005,0.004 0.012,0.008 0.017,0.012c0.646,0.511 0.761,1.449 0.253,2.099Z" style="fill:#fff;fill-rule:nonzero;"/></g></svg>